<svg id="Layer_1" data-name="Layer 1" xmlns="http://www.w3.org/2000/svg" viewBox="0 0 293 81.55">
  <defs>
    <style>
      .cls-1 {
        fill: #bb1e24;
      }
    </style>
  </defs>
  <title>logo-newstead-brewing</title>
  <path class="cls-1" d="M34.07,80.86h90.81L142,64.29ZM22.61,0l1.45,4.63V37.3l-.88-3L13.5,0H0L1.74,5.1V73.17L.28,77.93l13.36-2.09L12.2,71.21V33.72l-.29-2.89,1.15,2.89L25.27,74l9.68-1.37v-68L36.4,0ZM40.83,0l1.45,4.63V67l-1.45,4.62L69.68,67l4.38-16L67.29,55.6,55.38,57.37l-.86-.87V38.75l.57-.58,5.41-.46,4.34,1.44V24.88L60.5,26.79l-5.41.48-.57-.59V10.38L55,9.8h10L70,11.54,66.36,0ZM111,0l.59,4.63-3.47,22.82-.31,2.3-.28-2.3L103.15,0H93.58L89.07,29.74l-.29,2.33-.3-2.33L85,4.63,85.6,0H71.21l2.31,4.63,10.4,59.91L92,63.41l6.19-31,.29-2,.29,2,4.72,28.83,8.27-1L122.1,4.63,124.43,0Zm22.27,0-7.52,7.52V21.38l4,6.08,12.79,5.87L144,34.79v7.39l-.86,1.73-1.74.86-13.7,1.47-6.34-2.94L126.55,58l21.51-2.82,7.52-7.52V30.08L151.43,24l-12.91-5.86L137.37,17V11.86l.85-1.73L140,9.25h8.21l5,2.49L149.52,0ZM159,0l-3.86,11.57,6-2h4.51l.57.59V46.69l-2,5.52,15.34-2.34-2-4.39V10.13l.58-.59h4.51l6,2L184.79,0Zm32.09,0,2,4.84V42.91l-2.27,5.24,25.28-3.92,3.94-11.86-6.08,3-9.72,1.41-.86-.87V27.39l.57-.58,3.76-.47,4.33.94V15.42l-4.33,1.93-3.76.2-.57-.57V9.84l.46-.59h11.61L220.59,11,216.95,0ZM236,23l3.23-12.56.29-2,.29,2,2.65,12-.58.58-5.3.62ZM228.2,0l2.46,3.76-8.1,35.37-2.31,4.64,13.3-2.35-.86-3.3,1.15-5.26.57-.58,9.92-1.06.59.58.65,4.49L244.83,40l13.24-2.33-2.32-4.63L248.59,3.76l2-3.76ZM272,25.5l.05-16,.58-.57L278,8.7l2.75,1.7,1.45,2.89.13,8.55-1.44,2.89-1.27.82-6.73.81ZM259.73,0l1.45,4.63,0,28.23-1.44,4.63,25.16-3.74,8.1-8.11L293,8.1,284.89,0Z"/>
  <path class="cls-1" d="M150.64,78.22l0-4.51.23-.28,1.76-.2.91.36.35.71L154,77l-.34.81-.92.64-1.72.1Zm.05-8.5V67.36l.23-.29,2-.31.7.27.33.71v.73l-.34.81-.7.48-2,.17Zm-4.87-5.62.55,1.91-.08,13.47-.57,2.07,10.58-.07,2.36-3,0-6.16-1.93-1.84,1.73-2.14,0-3.37L156,62.58Zm20.66,4.31,0-3.13.24-.29,2-.29.94.36.45.94v.63l-.46,1.07-.94.64-2,.29Zm-4.91-6.66.55,1.91L162,79.46l-.58,2.08H167l-.58-1.92,0-6.69.24-.28,1.27-.18.46.18,2.8,8.9h5.47l-1.27-2.2-2.94-8.8,2.1-2.57,0-4.9-3-2.82Zm16.65-2.38.57,1.92-.08,18.11-.59,2.1h11.76l1.62-4.87L189,77.86l-5.54,0-.35-.33,0-6,.23-.28,1.52-.23,1.74.38,0-5.31-1.74.9-1.52.23-.23-.23,0-4.11.19-.28,4-.6,2.05.46L188,57.9Zm28.22-4.08.24,2-1.45,10.84-.12,1-.12-1-2-12.37-3.54.53-2,12-.12,1-.11-1-1.38-9.51.24-2.05-5.63.84.92,1.88,4.16,21.94h2.82L201,67l.12-.91.11.88,2.32,14.48h2.84l4.33-24.81,1-2.17Zm6.88-.85.72,1.85L214,79.37l-.6,2.12h5.84l-.59-2,.05-23.93.6-2.14Zm18.61-2.77.66,1.95,0,11.91.12,1.27-.52-1.21-4.6-13.33-5.68.85.82,1.86,0,24.4L222,81.49h5.79l-.66-2,0-16L227,62.22l.52,1.21,5.78,18.06h3.58l0-28.46.67-2.14Zm12.68-1.75L241,54l0,24.55,3.33,2.91h7.52l3.29-4.62-.26-1.26V65.51l.89-1.93-6.81.69,1.14,2.17v10l-.77.88h-1.88l-.82-.47-.51-1V56l.64-1.38,1.54-1,3.15-.44,3.46,1.34-2.12-5.77Z"/>
  <path class="cls-1" d="M283.43,75.08l-.29,1,5.3,2L291,74.28Zm1.79-7.32-.44-.9v-13l.44-1,.87-.6,1.18-.18.88.36.43.9V66.58l-.43.93-.88.61H286.1ZM283.17,49l-2.78,3.45V69.74l2.78,2.64,7-.84L293,68.09V50.62L290.21,48ZM269,46.21l-4.11,5.07V77.05L269,81l7.61,0,2.06-2.54.88-2V74.81l-4.68-1.89v2.43l-1,1.27h-2l-1.18-.8-.41-1.33V52.18l.5-1,1.6-1,2.81-.34,3.15,1.74-1.4-6.57Z"/>
</svg>
